<?xml version="1.0" encoding="UTF-8"?>
<svg width="88px" height="64px" viewBox="0 0 88 64" version="1.1" xmlns="http://www.w3.org/2000/svg" xmlns:xlink="http://www.w3.org/1999/xlink">
    <title>noun-video-1569867</title>
    <g id="Page-1" stroke="none" stroke-width="1" fill="none" fill-rule="evenodd">
        <g id="noun-video-1569867" transform="translate(-0.000001, 0.000000)" fill="#FFFFFF" fill-rule="nonzero">
            <g id="Group">
                <path d="M17,0 C7.6339845,0 0,7.634 0,17 L0,47.00002 C0,56.36602 7.6339845,64.00002 17,64.00002 L71,64.00002 C80.3660205,64.00002 88,56.36602 88,47.00002 L88,17 C88,7.634 80.3660195,0 71,0 L17,0 L17,0 Z M17.0000005,6 L71.0000005,6 C77.1457995,6 82.0000005,10.8542 82.0000005,17 L82.0000005,47.00002 C82.0000005,53.14582 77.1457995,58.00002 71.0000005,58.00002 L17.0000005,58.00002 C10.8542005,58.00002 6.0000005,53.14582 6.0000005,47.00002 L6.0000005,17 C6.0000005,10.8542 10.8542005,6 17.0000005,6 L17.0000005,6 Z M37.0000005,19 L37.0000005,45.00002 L59.0000005,32.00002 L37.0000005,19 Z" id="Shape"></path>
            </g>
        </g>
    </g>
</svg>